<?xml version="1.0" standalone="no"?>
<!DOCTYPE svg PUBLIC "-//W3C//DTD SVG 20010904//EN"
 "http://www.w3.org/TR/2001/REC-SVG-20010904/DTD/svg10.dtd">
<svg version="1.0" xmlns="http://www.w3.org/2000/svg"
 width="512.000000pt" height="512.000000pt" viewBox="0 0 512.000000 512.000000"
 preserveAspectRatio="xMidYMid meet">
<metadata>
Created by potrace 1.14, written by Peter Selinger 2001-2017
</metadata>
<g transform="translate(0.000000,512.000000) scale(0.100000,-0.100000)"
fill="#000000" stroke="none">
<path d="M1117 5010 c-32 -10 -60 -18 -63 -19 -15 -1 -124 -65 -124 -72 0 -5
-5 -9 -11 -9 -17 0 -91 -78 -125 -130 -16 -25 -32 -47 -35 -50 -3 -3 -14 -30
-24 -60 -21 -61 -21 -60 -31 -115 -4 -22 -7 -833 -7 -1802 l-1 -1763 -175 0
c-250 0 -275 -15 -267 -165 4 -86 9 -112 31 -189 15 -51 92 -200 122 -237 42
-50 116 -121 169 -160 55 -40 184 -106 221 -112 10 -1 23 -5 28 -8 46 -28 206
-31 1554 -27 1100 2 1385 6 1389 16 2 6 7 10 12 7 5 -3 21 0 37 6 15 7 34 13
40 15 30 6 121 71 169 120 66 67 117 153 146 247 l23 72 0 1666 0 1667 270 0
c149 0 284 1 302 1 21 1 45 12 68 32 l35 31 -1 350 c0 219 -4 360 -11 377 -44
111 -110 211 -140 211 -6 0 -8 3 -5 6 11 12 -81 65 -154 90 l-71 24 -1657 -1
c-1580 0 -1659 -1 -1714 -19z"/>
</g>
</svg>
